<svg width="47" height="60" viewBox="0 0 47 60" fill="none" xmlns="http://www.w3.org/2000/svg">
<path d="M45.124 13.8698C45.124 13.8698 42.4837 15.9558 39.1032 13.4578C38.9668 13.3568 38.8363 13.2582 38.7094 13.1596C38.6204 13.0915 38.5339 13.0234 38.4496 12.9553C38.4046 12.919 38.3595 12.8837 38.3144 12.8473C38.2575 12.8016 38.2005 12.7546 38.1448 12.71C38.0736 12.6513 38.0037 12.5938 37.9349 12.5363C37.904 12.5104 37.8732 12.4846 37.8423 12.4588C37.7427 12.3743 37.6454 12.2921 37.5505 12.2099C37.5458 12.2064 37.5411 12.2017 37.5363 12.1982C37.1983 11.9059 36.8911 11.6312 36.6052 11.3776C38.4081 10.9621 40.4755 10.0077 42.9474 8.2903L44.4289 10.0781C46.7668 6.22777 46.4667 2.60748 44.2901 0.0413541L43.4587 1.80806C42.9308 2.24123 42.3912 2.58048 41.842 2.84109C41.836 2.84344 41.8313 2.84696 41.8254 2.84931C41.7649 2.87748 41.7056 2.90448 41.6451 2.93148C41.6356 2.93617 41.6261 2.9397 41.6166 2.94439C41.5609 2.96904 41.5051 2.99135 41.4494 3.01365C41.4351 3.01952 41.4209 3.02539 41.4067 3.03126C41.3545 3.05121 41.3035 3.07117 41.2513 3.08995C41.2323 3.097 41.2145 3.10404 41.1955 3.11108C41.1469 3.12869 41.0983 3.14513 41.0496 3.16156C41.0271 3.1686 41.0057 3.17682 40.9832 3.18386C40.937 3.19913 40.8919 3.21204 40.8456 3.22612C40.8207 3.23317 40.7958 3.24139 40.7709 3.2496C40.727 3.26252 40.6819 3.27425 40.638 3.28599C40.612 3.29304 40.5847 3.30125 40.5586 3.3083C40.5159 3.31886 40.4732 3.32943 40.4317 3.33882C40.4032 3.34586 40.3735 3.35291 40.3451 3.35995C40.3047 3.36934 40.2644 3.37756 40.2253 3.38577C40.1932 3.39282 40.1624 3.39986 40.1304 3.40573C40.0912 3.41395 40.0521 3.41982 40.013 3.42686C39.9809 3.43273 39.9477 3.4386 39.9157 3.44447C39.8765 3.45151 39.8362 3.45621 39.7971 3.46325C39.7651 3.46795 39.733 3.47382 39.6998 3.47734C39.6583 3.48321 39.618 3.4879 39.5765 3.4926C39.5456 3.49612 39.5148 3.50082 39.4828 3.50434C39.4401 3.50903 39.3962 3.51255 39.3535 3.51725C39.3238 3.5196 39.2953 3.52312 39.2657 3.52547C39.2206 3.52899 39.1755 3.53251 39.1305 3.53486C39.1032 3.53721 39.0759 3.53955 39.0486 3.54073C39.0012 3.54308 38.9537 3.54542 38.9063 3.5466C38.8802 3.5466 38.8553 3.54895 38.8292 3.55012C38.7758 3.55129 38.7224 3.55247 38.6691 3.55364C38.6489 3.55364 38.6299 3.55364 38.6098 3.55364C38.5528 3.55364 38.4947 3.55364 38.4366 3.55364C38.4212 3.55364 38.4046 3.55364 38.3891 3.55364C38.3263 3.55364 38.2622 3.55012 38.1994 3.54895C38.1887 3.54895 38.1792 3.54895 38.1685 3.54895C38.0985 3.5466 38.0274 3.54308 37.9574 3.53838C37.9538 3.53838 37.9515 3.53838 37.9479 3.53838C35.138 3.36817 32.1762 2.04284 29.2132 0.976946C24.2742 -0.801501 17.6022 -0.5902 11.8495 5.42835C13.1186 5.09496 14.2881 4.89892 15.3734 4.8144C15.2631 4.88014 15.154 4.94705 15.0449 5.01631C15.0188 5.03275 14.9927 5.05035 14.9666 5.06679C14.9073 5.10435 14.848 5.14192 14.7887 5.18183C14.7887 5.18183 14.7911 5.18183 14.7922 5.18183C11.0298 7.67753 8.55201 11.9235 8.55201 16.7423C8.55201 17.2084 8.57454 17.6697 8.61962 18.124C9.46058 16.7811 10.5352 15.6389 11.6929 14.6728C11.6336 14.7831 11.5755 14.8946 11.5185 15.0073C11.5019 15.0402 11.4853 15.0742 11.4687 15.1071C11.4284 15.1893 11.388 15.2714 11.3489 15.3548C11.3323 15.3912 11.3145 15.4276 11.2979 15.4651C11.2564 15.5555 11.2161 15.6459 11.1769 15.7363C11.1651 15.7621 11.1544 15.788 11.1425 15.815C11.0939 15.93 11.0464 16.0462 11.0002 16.1636C10.9883 16.1953 10.9765 16.227 10.9646 16.2575C10.9314 16.3444 10.8982 16.4312 10.8661 16.5193C10.8507 16.5615 10.8353 16.605 10.8211 16.6472C10.7926 16.7282 10.7653 16.8104 10.738 16.8926C10.725 16.9337 10.7108 16.9748 10.6977 17.0158C10.6598 17.1344 10.623 17.253 10.5886 17.3727C10.5827 17.3915 10.5779 17.4114 10.5732 17.4302C10.5435 17.5335 10.5151 17.638 10.4878 17.7425C10.4771 17.7859 10.4664 17.8282 10.4557 17.8716C10.4344 17.9561 10.4142 18.0407 10.3953 18.1263C10.3858 18.1698 10.3751 18.212 10.3656 18.2555C10.3431 18.3576 10.3217 18.4597 10.3027 18.5619C10.298 18.5853 10.2932 18.6088 10.2885 18.6335C10.2636 18.7638 10.2411 18.8941 10.2197 19.0255C10.2162 19.0479 10.2138 19.069 10.2102 19.0913C10.1924 19.204 10.177 19.3178 10.1616 19.4317C10.158 19.4575 10.1545 19.4834 10.1521 19.5104C10.1462 19.5561 10.1402 19.6019 10.1343 19.6477C10.1343 19.6454 10.1367 19.6442 10.1367 19.6418C10.0774 20.1584 10.0465 20.6843 10.0465 21.216C10.0465 23.2222 10.4747 25.1274 11.2469 26.8507C11.4141 26.1088 11.6561 25.3951 11.9633 24.7154C11.9728 24.7835 11.9835 24.8528 11.9953 24.922C11.9965 24.9302 11.9977 24.9373 11.9989 24.9455C12.0155 25.0429 12.0357 25.1415 12.0582 25.2413C12.0594 25.2484 12.0618 25.2566 12.063 25.2636C12.0855 25.3657 12.1116 25.4679 12.1401 25.5735C12.1401 25.5759 12.1401 25.577 12.1412 25.5794C12.5659 27.1266 13.6571 29.0529 16.1599 31.0849C20.3255 34.4658 24.3525 37.7562 26.3796 39.4149L26.3855 39.4196C27.0319 39.9361 27.4459 40.7273 27.4459 41.6136C27.4459 43.1702 26.1708 44.4321 24.598 44.4321C23.6574 44.4321 22.8235 43.9802 22.3052 43.2829C22.2839 43.2476 22.2613 43.2148 22.24 43.1796L17.3045 34.7862C13.7461 28.7278 6.49881 27.1853 0 29.0072C3.85611 36.2935 7.71223 43.5787 11.5695 50.8639C14.6262 56.4903 20.5592 60.0003 27.0141 60.0003C28.1837 60.0003 29.3271 59.8864 30.4338 59.6704C30.5453 59.6481 30.6556 59.6246 30.7647 59.6C30.6556 59.6246 30.5453 59.6493 30.4338 59.6704C38.4805 58.0962 44.5487 51.0728 44.5487 42.6466C44.5487 36.7185 41.4921 31.2012 36.4427 28.0129L27.0687 23.086C27.0521 23.0778 27.0367 23.0673 27.0201 23.0579C26.9774 23.0344 26.9347 23.0097 26.8932 22.9839C26.8908 22.9827 26.8896 22.9816 26.8872 22.9804C26.6346 22.8196 26.4092 22.6188 26.2218 22.3876C26.2218 22.3876 26.2218 22.3876 26.2218 22.3864C26.185 22.3406 26.1495 22.2937 26.1151 22.2455C26.1103 22.2385 26.1056 22.2303 26.0996 22.2221C26.0712 22.181 26.0427 22.1387 26.0166 22.0953C26.0059 22.0777 25.9964 22.0601 25.987 22.0436C25.9668 22.0096 25.9466 21.9744 25.9276 21.9391C25.9134 21.9121 25.9004 21.8828 25.8873 21.8558C25.8743 21.83 25.8612 21.803 25.8494 21.7772C25.8328 21.7396 25.8185 21.702 25.8031 21.6645C25.796 21.6457 25.7877 21.6269 25.7806 21.6081C25.764 21.5635 25.7509 21.5177 25.7367 21.4731C25.7331 21.4602 25.7272 21.4473 25.7236 21.4332C25.7094 21.3839 25.6975 21.3346 25.6857 21.2841C25.6833 21.2736 25.6797 21.263 25.6774 21.2524C25.6667 21.2008 25.6572 21.1479 25.6489 21.0951C25.6477 21.0857 25.6453 21.0763 25.6442 21.0681C25.637 21.0165 25.6323 20.9636 25.6276 20.9108C25.6276 20.9003 25.6252 20.8897 25.624 20.8791C25.6193 20.8157 25.6169 20.7512 25.6169 20.6866C25.6169 20.4002 25.662 20.1243 25.745 19.8649C25.7853 19.7393 25.8351 19.6172 25.8932 19.4998C25.9027 19.4798 25.9134 19.4587 25.9241 19.4388C25.9466 19.3965 25.9703 19.3542 25.9941 19.3132C26.0047 19.2955 26.0142 19.2779 26.0249 19.2603C26.0522 19.2169 26.0807 19.1746 26.1103 19.1324C26.1198 19.1183 26.1293 19.1042 26.14 19.0901C26.1744 19.0432 26.2111 18.9974 26.2479 18.9528C26.2538 18.9457 26.2598 18.9375 26.2669 18.9293C26.357 18.8236 26.4543 18.725 26.5599 18.6346C26.5622 18.6323 26.5646 18.6299 26.5682 18.6276C26.5682 18.6276 26.5705 18.6264 26.5705 18.6252C26.6192 18.583 26.6702 18.5431 26.7224 18.5043C26.7366 18.4938 26.7508 18.4844 26.7639 18.475C26.8054 18.4456 26.8481 18.4163 26.8908 18.3893C26.9098 18.3776 26.9287 18.3658 26.9477 18.3553C26.9869 18.3318 27.0272 18.3083 27.0675 18.2872C27.0901 18.2754 27.1126 18.2637 27.1339 18.2531C27.1731 18.2332 27.2122 18.2144 27.2526 18.1968C27.2763 18.1862 27.3012 18.1756 27.3261 18.1663C27.3652 18.1498 27.4056 18.1346 27.4471 18.1205C27.4732 18.1111 27.4993 18.1017 27.5254 18.0935C27.5657 18.0806 27.6072 18.0688 27.6487 18.0571C27.676 18.05 27.7021 18.0418 27.7294 18.036C27.7721 18.0254 27.816 18.0172 27.8599 18.009C27.8859 18.0043 27.912 17.9984 27.9393 17.9937C27.9868 17.9867 28.0366 17.9808 28.0852 17.9761C28.1042 17.9737 28.122 17.9714 28.141 17.9702C28.1505 17.9702 28.1588 17.969 28.1682 17.9679C28.2359 17.9632 28.3047 17.9597 28.3734 17.9597H36.1995C37.7214 17.9597 38.9549 19.1805 38.9549 20.6866C38.9549 20.9742 38.9099 21.2512 38.8256 21.5119C44.5736 19.2568 45.1228 13.8722 45.1228 13.8722L45.124 13.8698ZM34.4192 57.96C36.2814 56.6124 37.6122 54.6297 38.1638 52.2432C37.6122 54.6285 36.2826 56.6124 34.4192 57.96ZM34.1452 58.1514C34.2033 58.1126 34.2602 58.0727 34.3172 58.0328C34.2602 58.0727 34.2033 58.1115 34.1464 58.1502L34.1452 58.1514ZM33.7964 58.3756C33.8842 58.3216 33.9708 58.2676 34.0562 58.2113C33.9708 58.2676 33.8842 58.3216 33.7976 58.3756H33.7964ZM33.5201 58.5376C33.5901 58.4977 33.6589 58.4578 33.7276 58.4155C33.6589 58.4566 33.5901 58.4965 33.5213 58.5364L33.5201 58.5376ZM33.2295 58.6961C33.2947 58.662 33.3599 58.6268 33.424 58.5916C33.3599 58.6268 33.2959 58.662 33.2307 58.6949L33.2295 58.6961ZM32.876 58.8722C32.876 58.8722 32.8748 58.8722 32.8736 58.8722C32.9614 58.8311 33.0492 58.7876 33.1346 58.7442C33.0492 58.7876 32.9626 58.8299 32.876 58.871V58.8722ZM32.5534 59.0177C32.653 58.9755 32.7503 58.9309 32.8475 58.8862C32.7503 58.932 32.653 58.9755 32.5534 59.0177ZM32.2462 59.1433C32.3197 59.114 32.3932 59.0846 32.4656 59.0541C32.3932 59.0846 32.3209 59.114 32.2474 59.1422L32.2462 59.1433ZM31.9105 59.2689C31.99 59.2408 32.0694 59.2114 32.1489 59.1821C32.0706 59.2114 31.9912 59.2408 31.9117 59.2689H31.9105ZM31.5226 59.3969C31.6282 59.364 31.7338 59.33 31.837 59.2948C31.7326 59.33 31.6282 59.364 31.5226 59.3969ZM31.2012 59.4896C31.2878 59.4661 31.3732 59.4415 31.4574 59.4157C31.4574 59.4157 31.4574 59.4157 31.4562 59.4157C31.372 59.4415 31.2878 59.465 31.2024 59.4885L31.2012 59.4896ZM38.4224 50.2264C38.4235 50.1818 38.4259 50.1372 38.4271 50.0926C38.4271 50.1372 38.4235 50.1818 38.4224 50.2264ZM38.2599 51.7736C38.2516 51.8182 38.2444 51.8628 38.2349 51.9075C38.2432 51.8628 38.2516 51.8182 38.2599 51.7736ZM38.2954 51.5705C38.3037 51.5189 38.3109 51.4661 38.3192 51.4144C38.312 51.4661 38.3037 51.5189 38.2954 51.5705ZM38.3441 51.2348C38.3512 51.1796 38.3571 51.1256 38.3642 51.0705C38.3583 51.1256 38.3512 51.1796 38.3441 51.2348ZM38.382 50.8991C38.3856 50.8674 38.3891 50.8369 38.3915 50.8052C38.3939 50.7805 38.3951 50.7559 38.3963 50.7312C38.3939 50.7559 38.3939 50.7805 38.3915 50.8052C38.3891 50.8369 38.3844 50.8674 38.382 50.8991ZM38.4081 50.5633C38.4117 50.507 38.4152 50.4507 38.4176 50.3955C38.4152 50.4518 38.4117 50.507 38.4081 50.5633ZM18.9378 10.6592C18.6614 10.7578 18.3578 10.8705 18.0316 11.0008C18.3578 10.8717 18.6626 10.7578 18.9378 10.6592ZM17.7493 11.1147C17.6757 11.1452 17.5998 11.1757 17.5239 11.2086C17.5998 11.1769 17.6745 11.1452 17.7493 11.1147ZM17.4848 11.225C17.4089 11.2567 17.3306 11.2908 17.2523 11.3248C17.3306 11.2908 17.4077 11.2579 17.4848 11.225ZM17.2167 11.3401C17.1313 11.3776 17.0459 11.4152 16.9581 11.4539C17.0447 11.4152 17.1313 11.3765 17.2167 11.3401ZM16.9463 11.4586C16.664 11.5854 16.3722 11.7216 16.0745 11.8683C16.3734 11.7216 16.6651 11.5854 16.9463 11.4586ZM15.7388 12.0374C15.6557 12.0796 15.5727 12.1219 15.4897 12.1665C15.5727 12.1231 15.6557 12.0796 15.7388 12.0374ZM15.428 12.1982C15.3485 12.2404 15.2691 12.2827 15.1896 12.3261C15.2691 12.2827 15.3497 12.2404 15.428 12.1982ZM15.1232 12.3625C15.0425 12.406 14.963 12.4506 14.8824 12.4964C14.963 12.4517 15.0437 12.4071 15.1232 12.3625ZM14.8183 12.5316C14.7329 12.5797 14.6464 12.629 14.5609 12.6795C14.6475 12.629 14.7329 12.5797 14.8183 12.5316ZM13.2313 13.5141C13.1412 13.5752 13.0522 13.6362 12.9632 13.6996C13.0522 13.6374 13.1423 13.5752 13.2313 13.5141ZM12.9063 13.7383C12.8233 13.797 12.7414 13.8557 12.6596 13.9156C12.6928 13.8921 12.7248 13.8675 12.758 13.8428C12.8078 13.8076 12.8577 13.7724 12.9063 13.7372V13.7383ZM19.8807 31.4395C16.6818 29.0835 13.9608 26.4645 13.4946 23.6049C13.9596 26.4645 16.6818 29.0835 19.8807 31.4395Z" fill="black"/>
</svg>
