<svg width="182" height="61" viewBox="0 0 182 61" fill="none" xmlns="http://www.w3.org/2000/svg">
<g clip-path="url(#clip0_17_12)">
<path d="M72.7134 36.0583H59.1678V29.1594H61.4499V14.1382H59.1678V7.23926H73.1108C76.2932 7.23926 78.8884 7.43295 80.8989 7.81916C82.9224 8.20655 84.8274 9.0001 86.6149 10.2022C88.3869 11.4183 89.783 13.0618 90.8019 15.1337C91.3048 16.128 91.688 17.1915 91.9536 18.3243C92.2182 19.4571 92.351 20.6451 92.351 21.8883C92.351 24.3887 91.8137 26.6672 90.739 28.7262C89.6786 30.7711 88.3312 32.3383 86.6991 33.4288C85.1085 34.5205 83.3637 35.2319 81.4659 35.5629C79.5823 35.894 76.6644 36.0607 72.7146 36.0607L72.7134 36.0583ZM72.7134 14.1382V29.1594H73.7809C76.4319 29.1594 78.1566 28.4621 78.9525 27.0663C79.7341 25.6717 80.1244 23.9167 80.1244 21.8037C80.1244 20.5336 79.9571 19.2764 79.6214 18.0332C79.2727 16.79 78.6583 15.8298 77.7794 15.1536C76.9135 14.4775 75.3644 14.1382 73.1321 14.1382H72.7134Z" fill="white"/>
<path d="M112.03 36.0584H95.9521V29.7393H98.5687V22.2804H95.9521V15.9613H109.099V18.5098C111.681 16.5623 114.451 15.588 117.41 15.588C120.007 15.588 121.96 16.2994 123.272 17.7222C124.57 19.1449 125.219 21.4305 125.219 24.58V29.7393H127.627V36.0584H114.688V27.1286C114.688 25.1811 114.521 23.8968 114.185 23.2747C113.822 22.6666 113.131 22.3625 112.113 22.3625C111.178 22.3625 110.173 22.7147 109.098 23.4191V29.7381H112.029V36.0572L112.03 36.0584Z" fill="white"/>
<path d="M144.606 36.0583H131.06V29.1594H133.343V14.1382H131.06V7.23926H145.003C148.186 7.23926 150.781 7.43295 152.792 7.81916C154.815 8.20655 156.72 9.0001 158.506 10.2022C160.278 11.4183 161.674 13.0618 162.693 15.1337C163.196 16.128 163.579 17.1915 163.845 18.3243C164.11 19.4571 164.242 20.6451 164.242 21.8883C164.242 24.3887 163.705 26.6672 162.63 28.7262C161.57 30.7711 160.223 32.3383 158.591 33.4288C157 34.5205 155.255 35.2319 153.357 35.5629C151.473 35.894 148.556 36.0607 144.606 36.0607V36.0583ZM144.606 14.1382V29.1594H145.674C148.326 29.1594 150.049 28.4621 150.845 27.0663C151.627 25.6717 152.017 23.9167 152.017 21.8037C152.017 20.5336 151.85 19.2764 151.514 18.0332C151.165 16.79 150.551 15.8298 149.672 15.1536C148.806 14.4775 147.257 14.1382 145.025 14.1382H144.606Z" fill="white"/>
<path d="M64.4473 52.7136H60.316L59.7039 54.0354C59.6197 54.2185 59.577 54.3641 59.577 54.4685C59.577 54.6704 59.7253 54.8101 60.0218 54.8888V55.1095H57.015V54.8888C57.1929 54.8524 57.3281 54.7878 57.4206 54.6963C57.5143 54.6047 57.6199 54.4251 57.7397 54.1598L61.0822 46.9368C61.1889 46.7068 61.2423 46.5236 61.2423 46.3863C61.2423 46.175 61.113 46.0236 60.8556 45.932V45.7113H64.0784V45.932C63.8162 46.0106 63.6858 46.1456 63.6858 46.3382C63.6858 46.4708 63.7273 46.6234 63.8127 46.7925L67.275 54.0354C67.4221 54.3429 67.5502 54.5531 67.6617 54.6658C67.7732 54.7785 67.9214 54.8524 68.1077 54.89V55.1107H64.7616V54.89C65.0557 54.8395 65.2028 54.6974 65.2028 54.4627C65.2028 54.3664 65.1577 54.2244 65.07 54.0354L64.4449 52.7136H64.4473ZM63.8767 51.427L62.4024 48.079L60.9043 51.427H63.8755H63.8767Z" fill="white"/>
<path d="M69.3626 54.4074V48.1013C69.3626 47.9592 69.3317 47.8512 69.2689 47.7773C69.2072 47.7045 69.0957 47.6423 68.9356 47.5918V47.3993H73.31C74.2198 47.3993 74.9374 47.5167 75.4605 47.7503C76.1971 48.0802 76.7273 48.6272 77.0523 49.389C77.2788 49.922 77.3915 50.543 77.3915 51.2544C77.3915 52.5715 77.0119 53.5704 76.2528 54.249C75.9112 54.5518 75.5079 54.7713 75.0442 54.9063C74.5804 55.0413 74.0015 55.1094 73.31 55.1094H68.9356V54.9169C69.091 54.8758 69.2013 54.8159 69.2653 54.7385C69.3294 54.6598 69.3614 54.5506 69.3614 54.4074H69.3626ZM71.1465 53.7125H73.0515C73.9256 53.7125 74.5602 53.5059 74.9564 53.0927C75.3692 52.6619 75.5755 52.0479 75.5755 51.2544C75.5755 50.4608 75.3692 49.848 74.9564 49.416C74.7524 49.2 74.4997 49.0427 74.1973 48.9441C73.8948 48.8455 73.514 48.7962 73.0515 48.7962H71.1465V53.7125Z" fill="white"/>
<path d="M82.3685 52.6689L84.1774 48.5908C84.2841 48.3572 84.3375 48.1823 84.3375 48.0672C84.3375 47.8383 84.1928 47.6799 83.9046 47.5918V47.3993H86.788V47.5918C86.6101 47.6517 86.482 47.7245 86.4014 47.8125C86.3219 47.8994 86.2187 48.079 86.0953 48.3501L83.4835 54.0306C83.3898 54.2325 83.3435 54.3863 83.3435 54.492C83.3435 54.722 83.4894 54.8664 83.7836 54.9251V55.1106H80.8586V54.9251C81.1468 54.8653 81.2915 54.7209 81.2915 54.492C81.2915 54.3863 81.2452 54.2325 81.1515 54.0306L78.5397 48.3501C78.4151 48.0743 78.3143 47.8947 78.236 47.8102C78.1578 47.7256 78.0285 47.6529 77.8458 47.593V47.4005H80.8337V47.593C80.5502 47.6846 80.4078 47.843 80.4078 48.0684C80.4078 48.1694 80.4636 48.3443 80.5739 48.592L82.3685 52.6701V52.6689Z" fill="white"/>
<path d="M89.764 51.8331V53.7125H94.4979C94.6355 53.7125 94.7411 53.6808 94.8146 53.6174C94.8881 53.554 94.9462 53.439 94.9913 53.2711H95.1775V55.5497H94.9913C94.951 55.3888 94.8941 55.275 94.8182 55.2092C94.7422 55.1423 94.6355 55.1094 94.4979 55.1094H87.5531V54.9169C87.7085 54.8758 87.8188 54.816 87.8828 54.7385C87.9469 54.6598 87.9789 54.5507 87.9789 54.4075V48.1013C87.9789 47.9593 87.9481 47.8513 87.8852 47.7773C87.8235 47.7045 87.712 47.6423 87.5519 47.5918V47.3993H94.2903C94.4327 47.3993 94.5406 47.3676 94.6129 47.3031C94.6865 47.2385 94.7446 47.1235 94.7897 46.9591H94.97V49.2376H94.7897C94.7446 49.0709 94.6865 48.9547 94.6129 48.8913C94.5394 48.8279 94.4315 48.7963 94.2903 48.7963H89.7629V50.4902H92.5728C92.7104 50.4902 92.816 50.4585 92.8895 50.3939C92.963 50.3294 93.0235 50.2155 93.0722 50.05H93.2525V52.2745H93.0722C93.0283 52.1113 92.969 51.9975 92.8954 51.9317C92.8219 51.866 92.714 51.8331 92.5728 51.8331H89.7629H89.764Z" fill="white"/>
<path d="M98.354 50.0288V54.4016C98.354 54.5436 98.386 54.654 98.4501 54.7314C98.5141 54.8089 98.6244 54.8711 98.7798 54.9169V55.1094H96.3032V54.9169C96.4586 54.8758 96.5689 54.8159 96.6329 54.7385C96.697 54.6598 96.729 54.5506 96.729 54.4074V48.1013C96.729 47.9592 96.6982 47.8512 96.6353 47.7773C96.5736 47.7045 96.4621 47.6423 96.302 47.5918V47.3993H99.1665V47.5918C98.9708 47.6423 98.8735 47.7315 98.8735 47.8606C98.8735 47.971 98.9447 48.0989 99.087 48.2457L103.088 52.3496V48.1013C103.088 47.9592 103.057 47.8501 102.994 47.7738C102.932 47.6975 102.821 47.6376 102.661 47.5918V47.3993H105.137V47.5918C104.977 47.6376 104.867 47.6986 104.804 47.7738C104.743 47.8501 104.71 47.9581 104.71 48.1001V54.4004C104.71 54.5424 104.741 54.6516 104.804 54.7267C104.866 54.8019 104.977 54.8652 105.137 54.9157V55.1082H102.466V54.9157C102.662 54.8746 102.759 54.7901 102.759 54.6633C102.759 54.6 102.732 54.533 102.68 54.465C102.628 54.3969 102.504 54.2619 102.313 54.0623L98.3528 50.0276L98.354 50.0288Z" fill="white"/>
<path d="M110.559 48.7963V54.4016C110.559 54.5436 110.59 54.6528 110.653 54.7279C110.715 54.8031 110.826 54.8664 110.986 54.9169V55.1094H108.35V54.9169C108.505 54.8758 108.615 54.816 108.679 54.7385C108.743 54.6598 108.775 54.5507 108.775 54.4075V48.7963H106.577C106.435 48.7963 106.328 48.8291 106.255 48.8949C106.181 48.9606 106.123 49.0745 106.078 49.2376H105.898V46.9591H106.078C106.118 47.1199 106.174 47.2338 106.248 47.2995C106.321 47.3665 106.429 47.3993 106.57 47.3993H112.756C112.898 47.3993 113.006 47.3676 113.079 47.3031C113.152 47.2385 113.21 47.1235 113.255 46.9591H113.436V49.2376H113.255C113.21 49.0756 113.152 48.9606 113.079 48.8949C113.005 48.8291 112.897 48.7963 112.756 48.7963H110.558H110.559Z" fill="white"/>
<path d="M122.026 48.1013V52.1841C122.026 53.1162 121.848 53.7994 121.493 54.236C120.92 54.9298 119.842 55.2761 118.257 55.2761C117.196 55.2761 116.339 55.1082 115.687 54.7737C115.216 54.5307 114.895 54.1844 114.721 53.7336C114.561 53.3204 114.482 52.8039 114.482 52.1841V48.1013C114.482 47.9592 114.451 47.8512 114.388 47.7773C114.326 47.7045 114.215 47.6423 114.055 47.5918V47.3993H116.692V47.5918C116.53 47.6376 116.419 47.6986 116.357 47.7738C116.295 47.8489 116.266 47.9581 116.266 48.1013V51.812C116.266 52.2439 116.303 52.5738 116.376 52.8039C116.45 53.034 116.577 53.2218 116.759 53.3685C117.123 53.6667 117.649 53.8158 118.337 53.8158C119.025 53.8158 119.551 53.6667 119.914 53.3685C120.092 53.2218 120.216 53.034 120.287 52.8039C120.358 52.5738 120.393 52.2439 120.393 51.812V48.1013C120.393 47.9592 120.364 47.8512 120.303 47.7773C120.244 47.7045 120.131 47.6423 119.968 47.5918V47.3993H122.451V47.5918C122.291 47.6376 122.181 47.6986 122.118 47.7738C122.056 47.8501 122.024 47.9581 122.024 48.1013H122.026Z" fill="white"/>
<path d="M125.827 51.9435V54.4028C125.827 54.5448 125.858 54.654 125.921 54.7291C125.983 54.8043 126.094 54.8676 126.254 54.9181V55.1106H123.617V54.9181C123.773 54.877 123.883 54.8172 123.947 54.7397C124.011 54.661 124.043 54.5519 124.043 54.4087V48.1025C124.043 47.9605 124.012 47.8525 123.95 47.7785C123.888 47.7057 123.776 47.6435 123.616 47.593V47.4005H128.503C129.138 47.4005 129.622 47.4334 129.955 47.5003C130.288 47.5672 130.585 47.6869 130.847 47.8619C131.384 48.2246 131.652 48.8162 131.652 49.638C131.652 50.2625 131.487 50.7496 131.156 51.1006C130.826 51.4516 130.292 51.7052 129.555 51.8613L130.967 53.8945C131.224 54.2701 131.429 54.5249 131.582 54.661C131.735 54.796 131.91 54.8817 132.105 54.9181V55.1106H128.969V54.9181C129.201 54.8536 129.316 54.7514 129.316 54.6094C129.316 54.5084 129.244 54.3558 129.102 54.1492L127.612 51.9447H125.826L125.827 51.9435ZM125.827 50.5454H128.517C128.925 50.5454 129.228 50.4996 129.422 50.408C129.698 50.2836 129.835 50.0382 129.835 49.6708C129.835 49.3445 129.739 49.1179 129.546 48.9888C129.352 48.8608 129.01 48.7963 128.517 48.7963H125.827V50.5454Z" fill="white"/>
<path d="M135.217 51.8331V53.7125H139.95C140.088 53.7125 140.194 53.6808 140.267 53.6174C140.341 53.554 140.399 53.439 140.444 53.2711H140.63V55.5497H140.444C140.404 55.3888 140.347 55.275 140.271 55.2092C140.195 55.1423 140.088 55.1094 139.95 55.1094H133.006V54.9169C133.161 54.8758 133.271 54.816 133.335 54.7385C133.399 54.6598 133.431 54.5507 133.431 54.4075V48.1013C133.431 47.9593 133.401 47.8513 133.338 47.7773C133.276 47.7045 133.165 47.6423 133.004 47.5918V47.3993H139.743C139.885 47.3993 139.993 47.3676 140.065 47.3031C140.139 47.2385 140.197 47.1235 140.242 46.9591H140.423V49.2376H140.242C140.197 49.0709 140.139 48.9547 140.065 48.8913C139.992 48.8279 139.884 48.7963 139.743 48.7963H135.215V50.4902H138.025C138.163 50.4902 138.269 50.4585 138.342 50.3939C138.416 50.3294 138.476 50.2155 138.525 50.05H138.705V52.2745H138.525C138.481 52.1113 138.422 51.9975 138.348 51.9317C138.274 51.866 138.167 51.8331 138.025 51.8331H135.215H135.217Z" fill="white"/>
<path d="M154.14 51.8812L155.406 53.8405L155.233 53.9649C155.108 53.8452 155.006 53.7853 154.927 53.7853C154.847 53.7853 154.623 53.8956 154.254 54.1163C153.49 54.5718 152.848 54.8794 152.327 55.0378C151.805 55.1963 151.184 55.2761 150.465 55.2761C149.031 55.2761 147.855 54.9251 146.937 54.2232C146.395 53.8146 145.969 53.3075 145.658 52.7018C145.299 52.0092 145.118 51.245 145.118 50.4092C145.118 49.2705 145.44 48.2821 146.084 47.4416C147.052 46.1797 148.514 45.5481 150.473 45.5481C151.191 45.5481 151.808 45.6267 152.324 45.7817C152.839 45.9378 153.483 46.2454 154.255 46.7044C154.624 46.9204 154.848 47.0284 154.928 47.0284C155.007 47.0284 155.109 46.9685 155.234 46.8499L155.407 46.9744L154.141 48.9371L153.961 48.8139C153.969 48.7411 153.974 48.6789 153.974 48.6284C153.974 48.4957 153.918 48.3713 153.808 48.2551C153.697 48.1389 153.5 47.998 153.215 47.8337C152.43 47.377 151.597 47.1481 150.718 47.1481C149.679 47.1481 148.851 47.4169 148.234 47.9534C147.506 48.5814 147.142 49.402 147.142 50.4162C147.142 51.4305 147.506 52.2498 148.234 52.8779C148.851 53.4144 149.679 53.6832 150.718 53.6832C151.597 53.6832 152.43 53.4531 153.215 52.9941C153.498 52.8286 153.697 52.6877 153.808 52.5703C153.918 52.4529 153.974 52.3285 153.974 52.1947C153.974 52.1442 153.969 52.0843 153.961 52.0151L154.141 51.8848L154.14 51.8812Z" fill="white"/>
<path d="M158.815 53.7125H162.99C163.132 53.7125 163.238 53.6808 163.309 53.6174C163.38 53.554 163.439 53.439 163.489 53.2711H163.67V55.5496H163.489C163.444 55.3841 163.386 55.2691 163.312 55.2057C163.239 55.1411 163.131 55.1094 162.99 55.1094H156.604V54.9169C156.759 54.8758 156.869 54.8159 156.933 54.7385C156.998 54.6598 157.03 54.5506 157.03 54.4074V48.1013C157.03 47.9592 156.999 47.8512 156.936 47.7773C156.874 47.7045 156.763 47.6423 156.603 47.5918V47.3993H159.239V47.5918C159.079 47.6376 158.969 47.6986 158.906 47.7738C158.843 47.8489 158.812 47.9581 158.812 48.1013V53.7125H158.815Z" fill="white"/>
<path d="M172.258 48.1013V52.1841C172.258 53.1162 172.08 53.7994 171.726 54.236C171.153 54.9298 170.075 55.2761 168.49 55.2761C167.428 55.2761 166.572 55.1082 165.92 54.7737C165.449 54.5307 165.127 54.1844 164.954 53.7336C164.794 53.3204 164.714 52.8039 164.714 52.1841V48.1013C164.714 47.9592 164.684 47.8512 164.621 47.7773C164.559 47.7045 164.448 47.6423 164.287 47.5918V47.3993H166.924V47.5918C166.763 47.6376 166.651 47.6986 166.59 47.7738C166.528 47.8489 166.498 47.9581 166.498 48.1013V51.812C166.498 52.2439 166.535 52.5738 166.609 52.8039C166.682 53.034 166.809 53.2218 166.992 53.3685C167.356 53.6667 167.881 53.8158 168.569 53.8158C169.257 53.8158 169.784 53.6667 170.147 53.3685C170.325 53.2218 170.448 53.034 170.519 52.8039C170.591 52.5738 170.626 52.2439 170.626 51.812V48.1013C170.626 47.9592 170.597 47.8512 170.536 47.7773C170.477 47.7045 170.364 47.6423 170.2 47.5918V47.3993H172.684V47.5918C172.524 47.6376 172.414 47.6986 172.351 47.7738C172.289 47.8501 172.257 47.9581 172.257 48.1013H172.258Z" fill="white"/>
<path d="M180.701 50.9656C181.07 51.1405 181.341 51.3143 181.514 51.4892C181.838 51.8202 182 52.2651 182 52.8251C182 53.5775 181.725 54.1586 181.174 54.5671C180.686 54.9299 180.013 55.1106 179.157 55.1106H173.85V54.9181C174.005 54.877 174.116 54.8172 174.18 54.7397C174.244 54.661 174.276 54.5519 174.276 54.4087V48.1025C174.276 47.9605 174.245 47.8525 174.182 47.7785C174.121 47.7057 174.009 47.6435 173.849 47.593V47.4005H179.069C179.984 47.4005 180.654 47.5707 181.08 47.91C181.533 48.268 181.759 48.7587 181.759 49.3832C181.759 49.7506 181.68 50.0512 181.523 50.2848C181.365 50.5184 181.091 50.7461 180.701 50.9668V50.9656ZM176.06 50.2906H178.77C179.196 50.2906 179.498 50.2343 179.675 50.1216C179.853 50.0089 179.942 49.8152 179.942 49.5393C179.942 49.2635 179.854 49.0768 179.679 48.9641C179.503 48.8514 179.201 48.7951 178.77 48.7951H176.06V50.2895V50.2906ZM176.06 53.7125H178.837C179.733 53.7125 180.182 53.3756 180.182 52.7006C180.182 52.0256 179.733 51.6887 178.837 51.6887H176.06V53.7125Z" fill="white"/>
<path d="M45.124 14.3698C45.124 14.3698 42.4837 16.4558 39.1032 13.9577C38.9668 13.8568 38.8363 13.7582 38.7094 13.6596C38.6204 13.5915 38.5339 13.5234 38.4496 13.4553C38.4046 13.4189 38.3595 13.3837 38.3144 13.3473C38.2575 13.3015 38.2005 13.2546 38.1448 13.21C38.0736 13.1513 38.0037 13.0938 37.9349 13.0362C37.904 13.0104 37.8732 12.9846 37.8423 12.9588C37.7427 12.8742 37.6454 12.7921 37.5505 12.7099C37.5458 12.7064 37.5411 12.7017 37.5363 12.6982C37.1983 12.4059 36.8911 12.1312 36.6052 11.8776C38.4081 11.462 40.4755 10.5077 42.9474 8.79027L44.4289 10.5781C46.7668 6.72774 46.4667 3.10745 44.2901 0.541324L43.4587 2.30803C42.9308 2.7412 42.3912 3.08045 41.842 3.34106C41.836 3.34341 41.8313 3.34693 41.8254 3.34927C41.7649 3.37745 41.7056 3.40445 41.6451 3.43145C41.6356 3.43614 41.6261 3.43966 41.6166 3.44436C41.5609 3.46901 41.5051 3.49132 41.4494 3.51362C41.4351 3.51949 41.4209 3.52536 41.4067 3.53123C41.3545 3.55118 41.3035 3.57114 41.2513 3.58992C41.2323 3.59697 41.2145 3.60401 41.1955 3.61105C41.1469 3.62866 41.0983 3.6451 41.0496 3.66153C41.0271 3.66857 41.0057 3.67679 40.9832 3.68383C40.937 3.6991 40.8919 3.71201 40.8456 3.72609C40.8207 3.73314 40.7958 3.74135 40.7709 3.74957C40.727 3.76249 40.6819 3.77422 40.638 3.78596C40.6119 3.79301 40.5847 3.80122 40.5586 3.80827C40.5159 3.81883 40.4732 3.8294 40.4317 3.83879C40.4032 3.84583 40.3735 3.85287 40.3451 3.85992C40.3047 3.86931 40.2644 3.87753 40.2253 3.88574C40.1932 3.89279 40.1624 3.89983 40.1304 3.9057C40.0912 3.91392 40.0521 3.91979 40.013 3.92683C39.9809 3.9327 39.9477 3.93857 39.9157 3.94444C39.8765 3.95148 39.8362 3.95618 39.7971 3.96322C39.7651 3.96792 39.733 3.97379 39.6998 3.97731C39.6583 3.98318 39.618 3.98787 39.5765 3.99257C39.5456 3.99609 39.5148 4.00079 39.4828 4.00431C39.4401 4.009 39.3962 4.01252 39.3535 4.01722C39.3238 4.01957 39.2953 4.02309 39.2657 4.02544C39.2206 4.02896 39.1755 4.03248 39.1305 4.03483C39.1032 4.03718 39.0759 4.03952 39.0486 4.0407C39.0012 4.04305 38.9537 4.04539 38.9063 4.04657C38.8802 4.04657 38.8553 4.04891 38.8292 4.05009C38.7758 4.05126 38.7224 4.05244 38.6691 4.05361C38.6489 4.05361 38.6299 4.05361 38.6098 4.05361C38.5528 4.05361 38.4947 4.05361 38.4366 4.05361C38.4212 4.05361 38.4046 4.05361 38.3891 4.05361C38.3263 4.05361 38.2622 4.05009 38.1994 4.04891C38.1887 4.04891 38.1792 4.04891 38.1685 4.04891C38.0985 4.04657 38.0274 4.04305 37.9574 4.03835C37.9538 4.03835 37.9515 4.03835 37.9479 4.03835C35.138 3.86814 32.1762 2.54281 29.2132 1.47692C24.2742 -0.301531 17.6022 -0.0902304 11.8495 5.92832C13.1186 5.59493 14.2881 5.39889 15.3734 5.31437C15.2631 5.38011 15.154 5.44702 15.0449 5.51628C15.0188 5.53272 14.9927 5.55032 14.9666 5.56676C14.9073 5.60432 14.848 5.64189 14.7887 5.6818C14.7887 5.6818 14.7911 5.6818 14.7922 5.6818C11.0298 8.1775 8.55201 12.4235 8.55201 17.2423C8.55201 17.7083 8.57454 18.1697 8.61962 18.624C9.46058 17.281 10.5352 16.1388 11.6929 15.1727C11.6336 15.2831 11.5755 15.3946 11.5185 15.5073C11.5019 15.5402 11.4853 15.5742 11.4687 15.6071C11.4284 15.6892 11.388 15.7714 11.3489 15.8548C11.3323 15.8911 11.3145 15.9275 11.2979 15.9651C11.2564 16.0555 11.2161 16.1459 11.1769 16.2363C11.1651 16.2621 11.1544 16.2879 11.1425 16.3149C11.0939 16.43 11.0464 16.5462 11.0002 16.6636C10.9883 16.6953 10.9765 16.727 10.9646 16.7575C10.9314 16.8443 10.8982 16.9312 10.8661 17.0193C10.8507 17.0615 10.8353 17.1049 10.8211 17.1472C10.7926 17.2282 10.7653 17.3104 10.738 17.3926C10.725 17.4336 10.7108 17.4747 10.6977 17.5158C10.6598 17.6344 10.623 17.7529 10.5886 17.8727C10.5827 17.8915 10.5779 17.9114 10.5732 17.9302C10.5435 18.0335 10.5151 18.138 10.4878 18.2425C10.4771 18.2859 10.4664 18.3281 10.4557 18.3716C10.4344 18.4561 10.4142 18.5406 10.3953 18.6263C10.3858 18.6697 10.3751 18.712 10.3656 18.7554C10.3431 18.8576 10.3217 18.9597 10.3027 19.0618C10.298 19.0853 10.2932 19.1088 10.2885 19.1334C10.2636 19.2637 10.2411 19.394 10.2197 19.5255C10.2162 19.5478 10.2138 19.569 10.2102 19.5913C10.1924 19.7039 10.177 19.8178 10.1616 19.9317C10.158 19.9575 10.1545 19.9833 10.1521 20.0103C10.1462 20.0561 10.1402 20.1019 10.1343 20.1477C10.1343 20.1453 10.1367 20.1442 10.1367 20.1418C10.0774 20.6583 10.0465 21.1842 10.0465 21.716C10.0465 23.7222 10.4747 25.6274 11.2469 27.3507C11.4141 26.6088 11.6561 25.8951 11.9633 25.2154C11.9728 25.2835 11.9835 25.3527 11.9953 25.422C11.9965 25.4302 11.9977 25.4372 11.9989 25.4455C12.0155 25.5429 12.0357 25.6415 12.0582 25.7413C12.0594 25.7483 12.0618 25.7565 12.063 25.7636C12.0855 25.8657 12.1116 25.9678 12.1401 26.0735C12.1401 26.0758 12.1401 26.077 12.1412 26.0794C12.5659 27.6265 13.6571 29.5529 16.1599 31.5849C20.3255 34.9657 24.3525 38.2561 26.3796 39.9149L26.3855 39.9196C27.0319 40.4361 27.4459 41.2273 27.4459 42.1136C27.4459 43.6701 26.1708 44.9321 24.598 44.9321C23.6574 44.9321 22.8235 44.4801 22.3052 43.7828C22.2839 43.7476 22.2613 43.7147 22.24 43.6795L17.3045 35.2862C13.7461 29.2277 6.49881 27.6852 0 29.5071C3.85611 36.7935 7.71223 44.0787 11.5695 51.3638C14.6262 56.9903 20.5592 60.5002 27.0141 60.5002C28.1837 60.5002 29.3271 60.3864 30.4338 60.1704C30.5453 60.1481 30.6556 60.1246 30.7647 60.0999C30.6556 60.1246 30.5453 60.1492 30.4338 60.1704C38.4805 58.5962 44.5487 51.5728 44.5487 43.1466C44.5487 37.2184 41.4921 31.7011 36.4427 28.5128L27.0687 23.586C27.0521 23.5778 27.0367 23.5672 27.0201 23.5578C26.9774 23.5344 26.9347 23.5097 26.8932 23.4839C26.8908 23.4827 26.8896 23.4815 26.8872 23.4804C26.6346 23.3195 26.4092 23.1188 26.2218 22.8875C26.2218 22.8875 26.2218 22.8875 26.2218 22.8864C26.185 22.8406 26.1495 22.7936 26.1151 22.7455C26.1103 22.7385 26.1056 22.7302 26.0996 22.722C26.0712 22.6809 26.0427 22.6387 26.0166 22.5952C26.0059 22.5776 25.9964 22.56 25.987 22.5436C25.9668 22.5096 25.9466 22.4743 25.9276 22.4391C25.9134 22.4121 25.9004 22.3828 25.8873 22.3558C25.8743 22.3299 25.8612 22.3029 25.8494 22.2771C25.8328 22.2396 25.8185 22.202 25.8031 22.1644C25.796 22.1456 25.7877 22.1269 25.7806 22.1081C25.764 22.0635 25.7509 22.0177 25.7367 21.9731C25.7331 21.9602 25.7272 21.9473 25.7236 21.9332C25.7094 21.8839 25.6975 21.8346 25.6857 21.7841C25.6833 21.7735 25.6797 21.763 25.6774 21.7524C25.6667 21.7007 25.6572 21.6479 25.6489 21.5951C25.6477 21.5857 25.6453 21.5763 25.6442 21.5681C25.637 21.5164 25.6323 21.4636 25.6276 21.4108C25.6276 21.4002 25.6252 21.3897 25.624 21.3791C25.6193 21.3157 25.6169 21.2511 25.6169 21.1866C25.6169 20.9001 25.662 20.6243 25.745 20.3648C25.7853 20.2392 25.8351 20.1172 25.8932 19.9998C25.9027 19.9798 25.9134 19.9587 25.9241 19.9387C25.9466 19.8965 25.9703 19.8542 25.9941 19.8131C26.0047 19.7955 26.0142 19.7779 26.0249 19.7603C26.0522 19.7169 26.0807 19.6746 26.1103 19.6323C26.1198 19.6183 26.1293 19.6042 26.14 19.5901C26.1744 19.5431 26.2111 19.4973 26.2479 19.4527C26.2538 19.4457 26.2598 19.4375 26.2669 19.4293C26.357 19.3236 26.4543 19.225 26.5599 19.1346C26.5622 19.1323 26.5646 19.1299 26.5682 19.1276C26.5682 19.1276 26.5705 19.1264 26.5705 19.1252C26.6192 19.083 26.6702 19.043 26.7224 19.0043C26.7366 18.9937 26.7508 18.9844 26.7639 18.975C26.8054 18.9456 26.8481 18.9163 26.8908 18.8893C26.9098 18.8775 26.9287 18.8658 26.9477 18.8552C26.9869 18.8317 27.0272 18.8083 27.0675 18.7871C27.0901 18.7754 27.1126 18.7637 27.1339 18.7531C27.1731 18.7331 27.2122 18.7144 27.2526 18.6967C27.2763 18.6862 27.3012 18.6756 27.3261 18.6662C27.3652 18.6498 27.4056 18.6345 27.4471 18.6204C27.4732 18.6111 27.4993 18.6017 27.5254 18.5934C27.5657 18.5805 27.6072 18.5688 27.6487 18.5571C27.676 18.55 27.7021 18.5418 27.7294 18.5359C27.7721 18.5254 27.816 18.5171 27.8599 18.5089C27.886 18.5042 27.912 18.4984 27.9393 18.4937C27.9868 18.4866 28.0366 18.4808 28.0852 18.4761C28.1042 18.4737 28.122 18.4714 28.141 18.4702C28.1505 18.4702 28.1588 18.469 28.1682 18.4678C28.2359 18.4631 28.3047 18.4596 28.3734 18.4596H36.1995C37.7214 18.4596 38.9549 19.6805 38.9549 21.1866C38.9549 21.4742 38.9099 21.7512 38.8256 22.0118C44.5736 19.7568 45.1228 14.3721 45.1228 14.3721L45.124 14.3698ZM34.4192 58.46C36.2814 57.1124 37.6122 55.1297 38.1638 52.7432C37.6122 55.1285 36.2826 57.1124 34.4192 58.46ZM34.1452 58.6514C34.2033 58.6126 34.2602 58.5727 34.3172 58.5328C34.2602 58.5727 34.2033 58.6114 34.1464 58.6502L34.1452 58.6514ZM33.7964 58.8756C33.8842 58.8216 33.9708 58.7676 34.0562 58.7112C33.9708 58.7676 33.8842 58.8216 33.7976 58.8756H33.7964ZM33.5201 59.0376C33.5901 58.9977 33.6589 58.9577 33.7276 58.9155C33.6589 58.9566 33.5901 58.9965 33.5213 59.0364L33.5201 59.0376ZM33.2295 59.196C33.2947 59.162 33.3599 59.1268 33.424 59.0916C33.3599 59.1268 33.2959 59.162 33.2307 59.1949L33.2295 59.196ZM32.876 59.3721C32.876 59.3721 32.8748 59.3721 32.8736 59.3721C32.9614 59.331 33.0492 59.2876 33.1346 59.2442C33.0492 59.2876 32.9626 59.3299 32.876 59.371V59.3721ZM32.5534 59.5177C32.653 59.4754 32.7503 59.4308 32.8475 59.3862C32.7503 59.432 32.653 59.4754 32.5534 59.5177ZM32.2462 59.6433C32.3197 59.614 32.3932 59.5846 32.4656 59.5541C32.3932 59.5846 32.3209 59.6139 32.2474 59.6421L32.2462 59.6433ZM31.9105 59.7689C31.99 59.7407 32.0694 59.7114 32.1489 59.682C32.0706 59.7114 31.9911 59.7407 31.9117 59.7689H31.9105ZM31.5226 59.8969C31.6282 59.864 31.7338 59.8299 31.837 59.7947C31.7326 59.8299 31.6282 59.864 31.5226 59.8969ZM31.2012 59.9896C31.2878 59.9661 31.3732 59.9415 31.4574 59.9156C31.4574 59.9156 31.4574 59.9156 31.4562 59.9156C31.372 59.9415 31.2878 59.9649 31.2024 59.9884L31.2012 59.9896ZM38.4224 50.7264C38.4235 50.6818 38.4259 50.6372 38.4271 50.5926C38.4271 50.6372 38.4235 50.6818 38.4224 50.7264ZM38.2599 52.2736C38.2516 52.3182 38.2444 52.3628 38.2349 52.4074C38.2432 52.3628 38.2516 52.3182 38.2599 52.2736ZM38.2954 52.0705C38.3037 52.0189 38.3109 51.966 38.3192 51.9144C38.312 51.966 38.3037 52.0189 38.2954 52.0705ZM38.3441 51.7348C38.3512 51.6796 38.3571 51.6256 38.3642 51.5704C38.3583 51.6256 38.3512 51.6796 38.3441 51.7348ZM38.382 51.399C38.3856 51.3674 38.3891 51.3368 38.3915 51.3051C38.3939 51.2805 38.3951 51.2558 38.3963 51.2312C38.3939 51.2558 38.3939 51.2805 38.3915 51.3051C38.3891 51.3368 38.3844 51.3674 38.382 51.399ZM38.4081 51.0633C38.4117 51.007 38.4152 50.9506 38.4176 50.8954C38.4152 50.9518 38.4117 51.007 38.4081 51.0633ZM18.9378 11.1592C18.6614 11.2578 18.3578 11.3705 18.0316 11.5008C18.3578 11.3717 18.6626 11.2578 18.9378 11.1592ZM17.7493 11.6147C17.6757 11.6452 17.5998 11.6757 17.5239 11.7086C17.5998 11.6769 17.6745 11.6452 17.7493 11.6147ZM17.4848 11.725C17.4089 11.7567 17.3306 11.7907 17.2523 11.8248C17.3306 11.7907 17.4077 11.7579 17.4848 11.725ZM17.2167 11.84C17.1313 11.8776 17.0459 11.9152 16.9581 11.9539C17.0447 11.9152 17.1313 11.8764 17.2167 11.84ZM16.9463 11.9586C16.664 12.0854 16.3722 12.2216 16.0745 12.3683C16.3734 12.2216 16.6651 12.0854 16.9463 11.9586ZM15.7388 12.5373C15.6557 12.5796 15.5727 12.6219 15.4897 12.6665C15.5727 12.623 15.6557 12.5796 15.7388 12.5373ZM15.428 12.6982C15.3485 12.7404 15.2691 12.7827 15.1896 12.8261C15.2691 12.7827 15.3497 12.7404 15.428 12.6982ZM15.1232 12.8625C15.0425 12.9059 14.963 12.9505 14.8824 12.9963C14.963 12.9517 15.0437 12.9071 15.1232 12.8625ZM14.8183 13.0315C14.7329 13.0797 14.6464 13.129 14.5609 13.1795C14.6475 13.129 14.7329 13.0797 14.8183 13.0315ZM13.2313 14.0141C13.1412 14.0751 13.0522 14.1362 12.9632 14.1996C13.0522 14.1373 13.1423 14.0751 13.2313 14.0141ZM12.9063 14.2383C12.8233 14.297 12.7414 14.3557 12.6596 14.4156C12.6928 14.3921 12.7248 14.3674 12.758 14.3428C12.8078 14.3076 12.8577 14.2723 12.9063 14.2371V14.2383ZM19.8807 31.9394C16.6818 29.5834 13.9608 26.9645 13.4946 24.1049C13.9596 26.9645 16.6818 29.5834 19.8807 31.9394Z" fill="white"/>
</g>
<defs>
<clipPath id="clip0_17_12">
<rect width="182" height="60" fill="white" transform="translate(0 0.5)"/>
</clipPath>
</defs>
</svg>
